# xmcd
# Track frame offsets:
# 183
# 18635
# 32415
# 49785
# 67133
# 79773
# 93348
# 111203
# 130200
# 144843
#
# Disc length: 2231 seconds
# Revision: 0
# Processed by: cddbd v1.4PL0 Copyright (c) Steve Scherf et al.
# Submitted via: VisiTrax 2.9.2.167 - For more info visit www.synapsa.com
#
DISCID=8108b50a
DTITLE=Jodle Birge - Country Dansk
DYEAR=1900
DGENRE=
TTITLE0=Hvem skal dømme?
TTITLE1=Kærlighed ved grænsen
TTITLE2=Rigtige venner
TTITLE3=Himmelhunden
TTITLE4=Papa, må jeg kalde hende mama
TTITLE5=Baby blue
TTITLE6=Jeg forlanger ingen roser
TTITLE7=Jeg savner dig i nat
TTITLE8=Hvis jeg græder
TTITLE9=I retssalen
EXTD=
EXTT0=
EXTT1=
EXTT2=
EXTT3=
EXTT4=
EXTT5=
EXTT6=
EXTT7=
EXTT8=
EXTT9=
PLAYORDER=
